<svg width="19" height="16" viewBox="0 0 19 16" fill="none" xmlns="http://www.w3.org/2000/svg">
<path fill-rule="evenodd" clip-rule="evenodd" d="M0.192702 3.90005C-0.0874415 6.50294 -0.074954 9.50493 0.314869 12.0973C0.530567 13.5316 1.70124 14.6313 3.14631 14.7569L4.65654 14.8882C7.80558 15.1619 10.9724 15.1619 14.1215 14.8882L15.6317 14.7569C17.0768 14.6313 18.2475 13.5316 18.4632 12.0973C18.853 9.50492 18.8655 6.50311 18.5853 3.90021C18.5491 3.59844 18.5084 3.29709 18.4632 2.99624C18.2475 1.56185 17.0768 0.462204 15.6317 0.336587L14.1215 0.205305C10.9724 -0.0684352 7.80558 -0.0684351 4.65654 0.205306L3.14631 0.336587C1.70124 0.462204 0.530567 1.56185 0.314869 2.99624C0.269637 3.29704 0.228914 3.59834 0.192702 3.90005ZM4.78644 1.69967C7.84905 1.43344 10.929 1.43344 13.9916 1.69967L15.5018 1.83095C16.2562 1.89652 16.8672 2.47054 16.9798 3.2193C16.9915 3.29705 17.0029 3.37485 17.014 3.45267L11.453 6.54212C10.1694 7.25523 8.60859 7.25523 7.325 6.54212L1.76406 3.45271C1.77512 3.37487 1.7865 3.29707 1.79819 3.2193C1.91079 2.47054 2.52188 1.89652 3.27621 1.83095L4.78644 1.69967ZM17.1975 5.06664C17.3915 7.33439 17.3189 9.61924 16.9798 11.8742C16.8672 12.623 16.2562 13.197 15.5018 13.2625L13.9916 13.3938C10.929 13.6601 7.84905 13.6601 4.78644 13.3938L3.27621 13.2625C2.52188 13.197 1.91079 12.623 1.79819 11.8742C1.4591 9.61925 1.38654 7.33442 1.58051 5.06668L6.59653 7.85336C8.33316 8.81815 10.4448 8.81815 12.1814 7.85336L17.1975 5.06664Z" fill="#3D3D8D"/>
</svg>
